# xmcd
#
# Track frame offsets: 
#        150
#        2775
#        21587
#        32525
#        37125
#        49675
#        71750
#        78862
#        87375
#        89062
#        121012
#        131250
#        141400
#        172200
#        177075
#        272400
#
# Disc length: 3730 seconds
#
# Revision: 0
# Processed by: cddbd v1.5.2PL0 Copyright (c) Steve Scherf et al.
# Submitted via: ExactAudioCopyFreeDBPlugin 1.0
#
DISCID=db0e9010
DTITLE=The Doors - An American Prayer and Bonus Tracks
DYEAR=1900
DGENRE=Blues
TTITLE0=Awake
TTITLE1=Ghost Song
TTITLE2=Dawn's Highway - Newborn Awakening
TTITLE3=To Come of Age
TTITLE4=Black Polished Chrome - Latino Chrome
TTITLE5=Angels and Sailors - Stoned Immaculate
TTITLE6=The Movie
TTITLE7=Curses - Invocations
TTITLE8=American Night
TTITLE9=Roadhouse Blues
TTITLE10=Lament
TTITLE11=The Hitchhiker
TTITLE12=An American Prayer
TTITLE13=Bird of Prey
TTITLE14=Rock is Dead
TTITLE15=Orange County Suite
EXTD=
EXTT0=
EXTT1=
EXTT2=
EXTT3=
EXTT4=
EXTT5=
EXTT6=
EXTT7=
EXTT8=
EXTT9=
EXTT10=
EXTT11=
EXTT12=
EXTT13=
EXTT14=
EXTT15=
PLAYORDER=
